<?xml version="1.0" encoding="UTF-8" standalone="no"?>
<svg width="30px" height="28px" viewBox="0 0 30 28" version="1.1" xmlns="http://www.w3.org/2000/svg" xmlns:xlink="http://www.w3.org/1999/xlink">
    <!-- Generator: Sketch 3.7.2 (28276) - http://www.bohemiancoding.com/sketch -->
    <title>Page 1</title>
    <desc>Created with Sketch.</desc>
    <defs></defs>
    <g id="Docs" stroke="none" stroke-width="1" fill="none" fill-rule="evenodd">
        <g id="documentation-images" transform="translate(-490.000000, -388.000000)" fill="#D2B690">
            <g id="Group-19" transform="translate(240.000000, 385.000000)">
                <g id="Group-15" transform="translate(250.000000, 3.000000)">
                    <g id="Page-1">
                        <path d="M29.3999994,0.299999994 C29.1891994,0.299999994 29.0047994,0.409199992 28.8967994,0.573599988 L12.0967997,26.3735995 C12.0359998,26.4671995 11.9983998,26.5795994 11.9983998,26.6999994 C11.9983998,27.0311994 12.2671997,27.2999994 12.5983997,27.2999994 L29.3983994,27.2999994 C29.7295994,27.2999994 29.9983994,27.0311994 29.9983994,26.6999994 L29.9983994,0.899999981 C29.9999994,0.568799988 29.7311994,0.299999994 29.3999994,0.299999994 L29.3999994,0.299999994 Z M28.7999994,26.0999995 L13.7063997,26.0999995 L15.0547997,24.0279995 L16.9735996,25.2779995 L17.6279996,24.2735995 L15.7091997,23.0235995 L16.3639997,22.0187995 L19.2891996,23.9235995 L19.9435996,22.9171995 L17.0187996,21.0123996 L17.6735996,20.0079996 L19.5919996,21.2579996 L20.2467996,20.2531996 L18.3279996,19.0031996 L18.9827996,17.9983996 L20.9015996,19.2483996 L21.5579996,18.2419996 L19.6375996,16.9919996 L20.2919996,15.9875997 L23.2171995,17.8935996 L23.8735995,16.8891996 L20.9483996,14.9779997 L21.6031996,13.9735997 L23.5235995,15.2235997 L24.1779995,14.2187997 L22.2579995,12.9671997 L22.9123995,11.9607998 L24.8327995,13.2123997 L25.4875995,12.2079997 L23.5671995,10.9563998 L24.2219995,9.95159979 L27.1483994,11.8579998 L27.8031994,10.8515998 L24.8763995,8.94519981 L25.5311995,7.94079984 L27.4515994,9.19199981 L28.1063994,8.18759983 L26.1859995,6.93599986 L28.7983994,2.92359994 L28.7983994,26.0999995 L28.7999994,26.0999995 Z" id="Fill-1"></path>
                        <path d="M25.7999995,21.2999996 C24.8047995,21.2999996 23.9999995,22.1063995 23.9999995,23.0999995 C23.9999995,24.0935995 24.8047995,24.8999995 25.7999995,24.8999995 C26.7935994,24.8999995 27.5999994,24.0935995 27.5999994,23.0999995 C27.5999994,22.1063995 26.7935994,21.2999996 25.7999995,21.2999996 L25.7999995,21.2999996 Z M25.7999995,23.6999995 C25.4671995,23.6999995 25.1999995,23.4311995 25.1999995,23.0999995 C25.1999995,22.7687995 25.4687995,22.4999995 25.7999995,22.4999995 C26.1311995,22.4999995 26.3999995,22.7687995 26.3999995,23.0999995 C26.3999995,23.4311995 26.1327995,23.6999995 25.7999995,23.6999995 L25.7999995,23.6999995 Z" id="Fill-2"></path>
                        <path d="M8.39999983,0.299999994 L1.19999998,0.299999994 C0.537599989,0.299999994 0,0.837599983 0,1.49999997 L0,26.0999995 C0,26.7623994 0.537599989,27.2999994 1.19999998,27.2999994 L8.39999983,27.2999994 C9.06239981,27.2999994 9.5999998,26.7623994 9.5999998,26.0999995 L9.5999998,1.49999997 C9.5999998,0.837599983 9.06239981,0.299999994 8.39999983,0.299999994 L8.39999983,0.299999994 Z M8.39999983,26.0999995 L1.19999998,26.0999995 L1.19999998,25.1999995 L3.59999993,25.1999995 L3.59999993,23.9999995 L1.19999998,23.9999995 L1.19999998,22.7999995 L3.59999993,22.7999995 L3.59999993,21.5999996 L1.19999998,21.5999996 L1.19999998,20.3999996 L4.7999999,20.3999996 L4.7999999,19.1999996 L1.19999998,19.1999996 L1.19999998,17.9999996 L3.59999993,17.9999996 L3.59999993,16.7999997 L1.19999998,16.7999997 L1.19999998,15.5999997 L3.59999993,15.5999997 L3.59999993,14.3999997 L1.19999998,14.3999997 L1.19999998,13.1999997 L4.7999999,13.1999997 L4.7999999,11.9999998 L1.19999998,11.9999998 L1.19999998,10.7999998 L3.59999993,10.7999998 L3.59999993,9.5999998 L1.19999998,9.5999998 L1.19999998,8.39999983 L3.59999993,8.39999983 L3.59999993,7.19999985 L1.19999998,7.19999985 L1.19999998,5.99999988 L4.7999999,5.99999988 L4.7999999,4.7999999 L1.19999998,4.7999999 L1.19999998,3.59999993 L3.59999993,3.59999993 L3.59999993,2.39999995 L1.19999998,2.39999995 L1.19999998,1.49999997 L8.39999983,1.49999997 L8.39999983,26.0999995 Z" id="Fill-3"></path>
                    </g>
                </g>
            </g>
        </g>
    </g>
</svg>