<?xml version="1.0" encoding="UTF-8" standalone="no"?>
<svg width="30px" height="22px" viewBox="0 0 30 22" version="1.1" xmlns="http://www.w3.org/2000/svg" xmlns:xlink="http://www.w3.org/1999/xlink">
    <!-- Generator: Sketch 3.7.2 (28276) - http://www.bohemiancoding.com/sketch -->
    <title>Page 1</title>
    <desc>Created with Sketch.</desc>
    <defs></defs>
    <g id="Docs" stroke="none" stroke-width="1" fill="none" fill-rule="evenodd">
        <g id="documentation-images" transform="translate(-740.000000, -394.000000)" fill="#D2B690">
            <g id="Group-19" transform="translate(240.000000, 385.000000)">
                <g id="Group-14" transform="translate(500.000000, 9.000000)">
                    <path d="M12.2924949,20.294929 C12.2924949,20.7212982 11.958215,21.0555781 11.5318458,21.0555781 L2.06977688,21.0555781 C0.944827586,21.0555781 0,20.1427992 0,18.9862069 L0,2.0693712 C0,0.944421907 0.912778905,-1.59872116e-14 2.06977688,-1.59872116e-14 L23.8543611,-1.59872116e-14 C24.979716,-1.59872116e-14 25.9241379,0.912778905 25.9241379,2.0693712 L25.9241379,3.22636917 C25.9241379,3.65273834 25.589858,3.98701826 25.1634888,3.98701826 C24.7371197,3.98701826 24.4028398,3.65273834 24.4028398,3.22636917 L24.4028398,2.0693712 C24.4028398,1.76511156 24.1586207,1.52129817 23.8543611,1.52129817 L2.06977688,1.52129817 C1.76551724,1.52129817 1.52129817,1.76511156 1.52129817,2.0693712 L1.52129817,4.89979716 L22.4851927,4.89979716 C22.9115619,4.89979716 23.2458418,5.23407708 23.2458418,5.66044625 C23.2458418,6.08681542 22.9115619,6.42109533 22.4851927,6.42109533 L1.55334686,6.42109533 L1.55334686,18.9878296 C1.55334686,19.2920892 1.79716024,19.5359026 2.10141988,19.5359026 L11.5634888,19.5359026 C11.958215,19.5342799 12.2924949,19.8685598 12.2924949,20.294929 L12.2924949,20.294929 Z M5.17241379,3.22636917 C5.17241379,3.68275862 5.53711968,4.07910751 6.02515213,4.07910751 C6.51156187,4.07910751 6.87789047,3.71440162 6.87789047,3.22636917 C6.87789047,2.76997972 6.51318458,2.37363083 6.02515213,2.37363083 C5.53874239,2.37363083 5.17241379,2.73995943 5.17241379,3.22636917 L5.17241379,3.22636917 Z M7.94279919,3.22636917 C7.94279919,3.68275862 8.30709939,4.07910751 8.79513185,4.07910751 C9.28154158,4.07910751 9.64787018,3.71440162 9.64787018,3.22636917 C9.64787018,2.76997972 9.2831643,2.37363083 8.79513185,2.37363083 C8.30872211,2.37363083 7.94279919,2.73995943 7.94279919,3.22636917 L7.94279919,3.22636917 Z M2.4040568,3.22636917 C2.4040568,3.68275862 2.76876268,4.07910751 3.25679513,4.07910751 C3.74320487,4.07910751 4.10912779,3.71440162 4.10912779,3.22636917 C4.10912779,2.76997972 3.74482759,2.37363083 3.25679513,2.37363083 C2.7703854,2.37363083 2.4040568,2.73995943 2.4040568,3.22636917 L2.4040568,3.22636917 Z M29.969574,7.79026369 C30,7.88235294 30,7.97241379 30,8.03448276 C29.969574,8.36876268 29.8174442,8.67302231 29.6036511,8.9168357 C27.2616633,11.2292089 20.840568,17.6803245 18.5281947,19.9922921 C18.3460446,20.1744422 18.1022312,20.2965517 17.8279919,20.356998 C17.0373225,20.5091278 16.2766734,20.6912779 15.4855984,20.8434077 L14.8170385,20.9955375 C14.7249493,21.0255578 14.6649087,21.0255578 14.5728195,21.0255578 C14.2385396,21.0255578 13.9643002,20.873428 13.7521298,20.6292089 C13.5395538,20.3853955 13.4778905,20.0511156 13.5395538,19.71643 L13.631643,19.2600406 C13.8137931,18.4077079 13.9959432,17.526572 14.1801217,16.6738337 C14.2401623,16.4300203 14.3622718,16.2174442 14.5444219,16.0352941 C15.0608519,15.5188641 15.5492901,15.0004057 16.0657201,14.5139959 L17.7691684,12.8105477 C20.1115619,10.4685598 24.2507099,6.32900609 25.6198783,4.95983773 C25.9541582,4.62555781 26.2884381,4.56389452 26.5026369,4.56389452 L26.6547667,4.56389452 L26.7148073,4.56389452 C26.9269777,4.59391481 27.1711968,4.62393509 27.4154158,4.71602434 C28.5103448,5.14239351 29.3010142,5.93306288 29.7890467,7.02799189 C29.8811359,7.24056795 29.9111562,7.42434077 29.9411765,7.60649087 C29.9395538,7.69817444 29.9395538,7.76024341 29.969574,7.79026369 L29.969574,7.79026369 Z M26.5926978,9.76795132 L24.7971602,7.97241379 C22.9716024,9.7979716 20.5075051,12.2924949 18.8640974,13.9054767 L17.1306288,15.6089249 C16.6442191,16.0957404 16.1257606,16.6137931 15.6393509,17.1002028 C15.4872211,17.8608519 15.305071,18.621501 15.1529412,19.3821501 C15.9135903,19.2300203 16.6742394,19.0478702 17.4348884,18.8957404 C19.2904665,17.0401623 23.672211,12.6584178 26.5926978,9.76795132 L26.5926978,9.76795132 Z M28.4182556,7.91237323 C28.3882353,7.82028398 28.3882353,7.73022312 28.358215,7.66815416 C28.0539554,6.93752535 27.5371197,6.45111562 26.8068966,6.14685598 C26.7464503,6.1168357 26.684787,6.1168357 26.5943205,6.1168357 C26.3821501,6.32900609 26.137931,6.57322515 25.8336714,6.87748479 L27.6292089,8.67302231 C27.9318458,8.39878296 28.2060852,8.15456389 28.4182556,7.91237323 L28.4182556,7.91237323 Z M20.0210953,8.58093306 C20.0210953,8.15456389 19.6868154,7.82028398 19.2604462,7.82028398 L3.83529412,7.82028398 C3.40892495,7.82028398 3.07464503,8.15456389 3.07464503,8.58093306 C3.07464503,9.00730223 3.40892495,9.34158215 3.83529412,9.34158215 L19.2604462,9.34158215 C19.6567951,9.34158215 20.0210953,9.00730223 20.0210953,8.58093306 L20.0210953,8.58093306 Z M3.83529412,10.7407708 C3.40892495,10.7407708 3.07464503,11.0754564 3.07464503,11.5014199 C3.07464503,11.927789 3.40892495,12.262069 3.83529412,12.262069 L15.5793103,12.262069 C16.0056795,12.262069 16.3399594,11.927789 16.3399594,11.5014199 C16.3399594,11.0754564 16.0056795,10.7407708 15.5793103,10.7407708 L3.83529412,10.7407708 Z M13.8137931,14.4239351 C13.8137931,13.9975659 13.4795132,13.663286 13.053144,13.663286 L3.83529412,13.663286 C3.40892495,13.663286 3.07464503,13.9975659 3.07464503,14.4239351 C3.07464503,14.8498986 3.40892495,15.1845842 3.83529412,15.1845842 L13.0547667,15.1845842 C13.4795132,15.1845842 13.8137931,14.8482759 13.8137931,14.4239351 L13.8137931,14.4239351 Z M11.6539554,16.5837728 L3.83529412,16.5837728 C3.40892495,16.5837728 3.07464503,16.9180527 3.07464503,17.3444219 C3.07464503,17.7707911 3.40892495,18.105071 3.83529412,18.105071 L11.6539554,18.105071 C12.0803245,18.105071 12.4146045,17.7707911 12.4146045,17.3444219 C12.4146045,16.9180527 12.0803245,16.5837728 11.6539554,16.5837728 L11.6539554,16.5837728 Z" id="Page-1"></path>
                </g>
            </g>
        </g>
    </g>
</svg>