<?xml version="1.0" encoding="UTF-8" standalone="no"?>
<svg width="30px" height="21px" viewBox="0 0 30 21" version="1.1" xmlns="http://www.w3.org/2000/svg" xmlns:xlink="http://www.w3.org/1999/xlink">
    <!-- Generator: Sketch 3.7.2 (28276) - http://www.bohemiancoding.com/sketch -->
    <title>Page 1</title>
    <desc>Created with Sketch.</desc>
    <defs></defs>
    <g id="Docs" stroke="none" stroke-width="1" fill="none" fill-rule="evenodd">
        <g id="documentation" transform="translate(-240.000000, -395.000000)" fill="#D2B690">
            <g id="Group-19" transform="translate(240.000000, 385.000000)">
                <g id="Group-12" transform="translate(0.000000, 10.000000)">
                    <path d="M4.60091496,16.3780947 C4.60091496,15.9538482 4.93353068,15.6212325 5.35777718,15.6212325 L12.3209096,15.6212325 C12.7451561,15.6212325 13.0777718,15.9538482 13.0777718,16.3780947 L13.0777718,16.4995963 L16.9222282,16.4995963 L16.9222282,16.3780947 C16.9222282,15.9538482 17.2548439,15.6212325 17.6790904,15.6212325 L24.6720936,15.6212325 C25.0963402,15.6212325 25.4289559,15.9538482 25.4289559,16.3780947 C25.4289559,16.8023412 25.0963402,17.1349569 24.6720936,17.1349569 L18.314451,17.1349569 C18.0714478,17.6488159 17.5575888,18.0133208 16.9222282,18.0133208 L13.1076426,18.0133208 C12.5021529,18.0133208 11.9568084,17.6504306 11.7154198,17.1349569 L5.35777718,17.1349569 C4.96541981,17.1349569 4.60091496,16.8023412 4.60091496,16.3780947 L4.60091496,16.3780947 Z M0,17.8001884 L0,16.3780947 C0,15.9538482 0.332615716,15.6212325 0.756862217,15.6212325 L2.17895587,15.6212325 L2.17895587,1.96784177 C2.17895587,0.877960172 3.0573197,0 4.14679763,0 L25.7930571,0 C26.8526642,0 27.731028,0.816603875 27.8210441,1.90769645 L27.8210441,1.96784177 L27.8210441,15.6212325 L29.2431378,15.6212325 C29.6673843,15.6212325 30,15.9538482 30,16.3780947 L30,17.8001884 C30,19.4055436 28.6977933,20.7061356 27.0940527,20.7061356 L2.90594726,20.7061356 C1.30059203,20.7061356 0,19.4055436 0,17.8001884 L0,17.8001884 Z M1.51372443,17.8001884 C1.51372443,18.5570506 2.14908504,19.1924112 2.90594726,19.1924112 L27.1255382,19.1924112 C27.8824004,19.1924112 28.517761,18.5570506 28.517761,17.8001884 L28.517761,17.1349569 L27.0956674,17.1349569 C26.6714209,17.1349569 26.3388052,16.8023412 26.3388052,16.3780947 L26.3388052,2.02758342 C26.3089343,1.75470936 26.0659311,1.51372443 25.8245425,1.51372443 L4.14679763,1.51372443 C3.90419806,1.51372443 3.6926803,1.72483854 3.6926803,1.96784177 L3.6926803,16.3780947 C3.6926803,16.8023412 3.36006459,17.1349569 2.93581808,17.1349569 L1.51372443,17.1349569 L1.51372443,17.8001884 Z M13.1694026,11.6556781 C13.320775,11.8070506 13.5020183,11.8667922 13.714747,11.8667922 C13.896394,11.8667922 14.1091227,11.8070506 14.2604952,11.6556781 L18.7415231,7.20573197 C19.044268,6.90298708 19.044268,6.41899892 18.7415231,6.14612487 C18.4387783,5.84337998 17.9547901,5.84337998 17.681916,6.14612487 L13.7131324,10.0503229 L12.3810549,8.71784177 C12.07831,8.41509688 11.5939182,8.41509688 11.3214478,8.71784177 C11.0187029,9.02058665 11.0187029,9.50457481 11.3214478,9.77744887 L13.1694026,11.6556781 Z" id="Page-1"></path>
                </g>
            </g>
        </g>
    </g>
</svg>