<?xml version="1.0" encoding="UTF-8" standalone="no"?>
<svg width="30px" height="30px" viewBox="0 0 30 30" version="1.1" xmlns="http://www.w3.org/2000/svg" xmlns:xlink="http://www.w3.org/1999/xlink">
    <!-- Generator: Sketch 3.7.2 (28276) - http://www.bohemiancoding.com/sketch -->
    <title>Page 1</title>
    <desc>Created with Sketch.</desc>
    <defs></defs>
    <g id="Docs" stroke="none" stroke-width="1" fill="none" fill-rule="evenodd">
        <g id="documentation-code-tip" transform="translate(-1005.000000, -385.000000)" fill="#D2B690">
            <g id="Group-19" transform="translate(240.000000, 385.000000)">
                <g id="Group-18" transform="translate(765.000000, 0.000000)">
                    <g id="Page-1">
                        <path d="M19.542,14.2188 L21.9952,11.65 C22.6236,11.8736 23.2968,12.0016 24,12.0016 C27.314,12.0016 30,9.314 30,6.0016 C30,5.0764 29.7844,4.2032 29.4108,3.4204 L26.7484,6.0828 C26.3876,6.4436 25.8876,6.6672 25.3344,6.6672 C24.2296,6.6672 23.3344,5.772 23.3344,4.6672 C23.3344,4.1156 23.558,3.6156 23.9204,3.2532 L26.5828,0.5908 C25.7984,0.2156 24.9264,0 24,0 C20.686,0 18,2.686 18,6 C18,6.7048 18.128,7.3764 18.35,8.0048 L15.3952,10.814 C15.0564,10.7204 14.7016,10.6672 14.3328,10.6672 C13.4936,10.6672 12.7156,10.9264 12.072,11.3688 L5.4376,4.5048 L6.472,3.472 C6.592,3.35 6.6672,3.1844 6.6672,3 C6.6672,2.7548 6.5328,2.542 6.336,2.4264 L6.3376,2.4248 L2.336,0.0908 L2.3344,0.0936 C2.236,0.0344 2.1236,0 2,0 C1.8156,0 1.65,0.0752 1.528,0.1952 L0.1952,1.528 C0.0752,1.65 0,1.8156 0,2 C0,2.122 0.0344,2.236 0.0936,2.3344 L0.0908,2.336 L2.4236,6.3376 L2.4264,6.336 C2.542,6.5344 2.7548,6.6672 3,6.6672 C3.1844,6.6672 3.3516,6.592 3.472,6.472 L4.4952,5.4484 L11.1172,12.2968 C10.628,12.9608 10.3344,13.778 10.3344,14.6656 C10.3344,14.942 10.3624,15.2124 10.4156,15.472 L0.9764,24.3092 C0.3736,24.9124 0,25.7468 0,26.6656 C0,28.508 1.492,30 3.3328,30 C4.2532,30 5.086,29.6264 5.6908,29.0236 L14.0812,20.0704 L22.8392,28.8296 C23.5624,29.5532 24.5624,30.0016 25.6672,30.0016 C27.8764,30.0016 29.6672,28.2108 29.6672,26.0016 C29.6672,24.8968 29.2188,23.8968 28.4952,23.1736 L19.542,14.2188 Z M3.1408,4.9172 L1.5016,2.1092 L2.108,1.5016 L4.9172,3.1408 L3.1408,4.9172 Z M23.4376,1.378 L22.7408,2.0752 C21.308,3.508 21.308,5.828 22.7408,7.2608 C24.172,8.692 26.4936,8.692 27.9264,7.2608 L28.6236,6.564 C28.3452,8.8752 26.386,10.6688 24,10.6688 C23.3968,10.6688 22.822,10.55 22.2936,10.3408 C22.1532,10.2844 22.0156,10.2236 21.8828,10.1564 C21.8672,10.1484 21.8532,10.1408 21.8376,10.1312 C20.9968,9.6908 20.3092,9.0032 19.8688,8.1624 C19.8608,8.1484 19.8516,8.1328 19.8436,8.1188 C19.7764,7.9844 19.714,7.8484 19.6608,7.7092 C19.4516,7.1812 19.3328,6.6064 19.3328,6.0032 C19.3344,3.614 21.1264,1.6548 23.4376,1.378 L23.4376,1.378 Z M18.9936,9.2876 C19.4436,9.9704 20.028,10.5548 20.7108,11.0064 L18.578,13.2548 L17.1624,11.8376 C17.022,11.6968 16.8688,11.572 16.7092,11.4548 L18.9936,9.2876 Z M4.7468,28.0812 C4.3844,28.4436 3.8844,28.6672 3.3328,28.6672 C2.228,28.6672 1.3328,27.772 1.3328,26.6672 C1.3328,26.1156 1.5564,25.6156 1.9188,25.2532 L10.958,16.8064 C11.1156,17.0548 11.2984,17.2876 11.5048,17.4952 L13.1264,19.1156 L4.7468,28.0812 Z M25.6672,28.6672 C24.9312,28.6672 24.264,28.3688 23.7812,27.886 L14.0376,18.142 L12.4468,16.5532 C12.2484,16.3548 12.0844,16.1248 11.9564,15.872 C11.9124,15.7876 11.8752,15.6968 11.8408,15.608 C11.836,15.5968 11.8312,15.5844 11.828,15.5736 C11.8,15.4952 11.7752,15.4156 11.7532,15.3328 C11.7484,15.3124 11.742,15.292 11.7376,15.272 C11.7204,15.1968 11.7064,15.1204 11.6952,15.042 C11.692,15.0172 11.686,14.9936 11.6844,14.9704 C11.6736,14.872 11.6656,14.7704 11.6656,14.6672 C11.6656,14.5952 11.6704,14.5236 11.6764,14.4516 C11.6828,14.3908 11.6892,14.3312 11.6984,14.2704 C11.8812,13.05 12.8876,12.1016 14.136,12.0108 C14.2,12.0064 14.2656,12.0016 14.3328,12.0016 C14.4484,12.0016 14.5608,12.0108 14.6736,12.0248 C14.7,12.0296 14.7248,12.0328 14.7516,12.0376 C14.85,12.0532 14.9484,12.072 15.042,12.0984 C15.0532,12.1016 15.064,12.1032 15.0736,12.108 C15.3032,12.1736 15.5188,12.2704 15.7188,12.392 C15.9,12.5032 16.0688,12.6328 16.2172,12.7812 L18.6204,15.1844 L27.5516,24.114 C28.0344,24.5968 28.3328,25.264 28.3328,26 C28.3328,27.472 27.1392,28.6672 25.6672,28.6672 L25.6672,28.6672 Z" id="Fill-1"></path>
                        <path d="M19.472,18.8624 C19.3516,18.7408 19.1844,18.6672 19,18.6672 C18.6312,18.6672 18.3328,18.9656 18.3328,19.3328 C18.3328,19.5172 18.408,19.6828 18.528,19.8048 L25.1952,26.472 C25.3156,26.592 25.4828,26.6672 25.6672,26.6672 C26.036,26.6672 26.3344,26.3688 26.3344,26.0016 C26.3344,25.8172 26.2592,25.6516 26.1392,25.5296 L19.472,18.8624 Z" id="Fill-2"></path>
                        <path d="M4,26.6672 C4,27.5548 2.6672,27.5548 2.6672,26.6672 C2.6672,25.778 4,25.778 4,26.6672" id="Fill-3"></path>
                    </g>
                </g>
            </g>
        </g>
    </g>
</svg>