<?xml version="1.0" encoding="UTF-8" standalone="no"?>
<svg width="14px" height="14px" viewBox="0 0 14 14" version="1.1" xmlns="http://www.w3.org/2000/svg" xmlns:xlink="http://www.w3.org/1999/xlink">
    <!-- Generator: Sketch 3.7.2 (28276) - http://www.bohemiancoding.com/sketch -->
    <title>Page 1</title>
    <desc>Created with Sketch.</desc>
    <defs></defs>
    <g id="Docs" stroke="none" stroke-width="1" fill="none" fill-rule="evenodd">
        <g id="documentation" transform="translate(-239.000000, -291.000000)" fill="#D2B690">
            <g id="Group-16" transform="translate(239.000000, 120.000000)">
                <g id="Group-22" transform="translate(0.000000, 171.000000)">
                    <g id="Page-1">
                        <path d="M9.73504,3.59762667 L7.40170667,5.93170667 C7.27701333,5.88429333 7.14149333,5.85890667 7,5.85890667 C6.37074667,5.85890667 5.85890667,6.37074667 5.85890667,7 C5.85890667,7.62925333 6.37074667,8.14109333 7,8.14109333 C7.62925333,8.14109333 8.14109333,7.62925333 8.14109333,7 C8.14109333,6.88706667 8.12429333,6.77768 8.09368,6.67408 L10.4533333,4.31517333 C10.6510133,4.11693333 10.6510133,3.79605333 10.4533333,3.59762667 C10.2550933,3.40013333 9.93346667,3.40013333 9.73504,3.59762667 L9.73504,3.59762667 Z" id="Fill-1"></path>
                        <path d="M7,0 C3.13394667,0 0,3.13394667 0,7 C0,10.8660533 3.13394667,14 7,14 C10.8660533,14 14,10.8660533 14,7 C14,3.13394667 10.8660533,0 7,0 L7,0 Z M11.2328533,11.2321067 C10.10184,12.3629333 8.59898667,12.9856533 7,12.9856533 C5.40101333,12.9856533 3.89816,12.3629333 2.76789333,11.2328533 C1.63706667,10.10184 1.01434667,8.59898667 1.01434667,7 C1.01434667,5.40101333 1.63706667,3.89816 2.76714667,2.76789333 C3.89816,1.63706667 5.40101333,1.01434667 7,1.01434667 C8.59898667,1.01434667 10.10184,1.63706667 11.2328533,2.76714667 C12.3629333,3.89816 12.9856533,5.40101333 12.9856533,7 C12.9856533,8.59898667 12.3629333,10.10184 11.2328533,11.2321067 L11.2328533,11.2321067 Z" id="Fill-2"></path>
                    </g>
                </g>
            </g>
        </g>
    </g>
</svg>